<svg width="212" height="31" viewBox="0 0 212 31" fill="none" xmlns="http://www.w3.org/2000/svg">
<path d="M43.5074 1.24695C41.9091 2.92749 41.4177 3.82986 40.2706 6.37077L29.6612 30.7587L22.1536 13.6665L14.7355 30.7587L4.0385 6.37077C2.93153 3.82986 2.44381 3.00969 0.799805 1.24695H14.3665C13.8659 1.64972 13.4649 2.16249 13.1947 2.74541C12.9244 3.32833 12.7922 3.96571 12.8084 4.60803C12.8084 5.5926 12.9728 6.28857 13.5061 7.55993L17.5632 17.2413L20.5553 10.0278L18.8839 6.12416C17.9011 3.87005 17.2033 2.47082 16.2206 1.24695H29.7873C28.4757 2.10731 27.8199 3.21427 27.8199 4.60803C27.8199 5.5926 27.9825 6.28857 28.5159 7.55993L32.6552 17.2413L36.7542 7.56906C37.2876 6.29039 37.4849 5.60174 37.4849 4.65735C37.4849 3.428 36.6245 1.95387 35.6399 1.25608L43.5074 1.24695Z" fill="#F9F9F9"/>
<path d="M57.6093 22.9696C56.2977 28.667 53.143 30.5521 48.5526 30.5521C43.3064 30.5521 38.3872 26.7417 38.3872 19.5683C38.3872 12.6818 42.731 7.80457 48.4339 7.80457C52.1639 7.80457 57.4101 9.7317 57.4101 17.8513H45.0235C45.8838 22.1951 48.7115 24.4492 52.6462 24.4492C54.6555 24.4456 56.0493 24.0766 57.6093 22.9696ZM44.7769 15.0181V15.5442H50.1875C50.1875 11.4451 49.2851 10.1756 47.5644 10.1756C45.8016 10.1829 44.7769 11.9438 44.7769 15.0181Z" fill="#F9F9F9"/>
<path d="M82.452 8.66505C79.0489 5.42818 75.6933 3.74764 73.1068 3.74764V21.8317C73.1068 25.4851 74.0493 27.6935 76.5501 29.9476H61.0489C63.5496 27.6935 64.4922 25.4796 64.4922 21.8317V3.74764C61.9093 3.74764 58.3856 5.42818 55.1469 8.66505L56.7873 0.0175781C57.8924 0.877941 59.9419 1.24693 62.2381 1.24693H75.3536C77.6497 1.24693 79.6974 0.881594 80.8044 0.0175781L82.452 8.66505Z" fill="#F9F9F9"/>
<path d="M91.8703 29.9386H78.837C80.4354 28.0535 81.1313 26.8241 81.1313 23.832V17.1884C81.1313 14.8521 80.8044 13.7451 79.2462 12.3094L78.3438 11.491L88.1823 7.80115V12.9286C89.1249 9.97671 90.599 7.8048 93.0175 7.8048C94.9848 7.8048 96.2562 9.19855 96.2562 11.2481C96.2562 13.42 94.9026 14.9361 93.0175 14.9361C92.6083 13.9936 91.6237 13.5442 90.7232 13.5442C89.9925 13.5442 89.2874 13.7488 88.9184 14.1178V23.5818C88.9184 26.7419 89.4518 27.6004 91.8703 29.9386Z" fill="#F9F9F9"/>
<path d="M118.803 26.1681C118.312 28.7492 116.18 30.5521 113.27 30.5521C110.811 30.5521 108.926 29.078 108.353 27.3975C107.112 29.6096 104.822 30.5521 102.363 30.5521C98.9598 30.5521 96.6655 28.298 96.6655 25.2237C96.6655 21.6179 99.2484 19.1171 105.191 17.6832L107.931 17.0274V13.3376C107.931 11.0433 107.152 10.1007 105.759 10.1007C104.447 10.1007 103.587 10.9611 103.587 12.1502C103.587 13.175 104.078 13.8308 104.938 14.6491C104.938 15.9607 102.889 17.3142 100.759 17.3142C100.288 17.3244 99.8197 17.2392 99.3825 17.0636C98.9453 16.888 98.5481 16.6258 98.215 16.2926C97.8818 15.9595 97.6195 15.5623 97.444 15.1251C97.2684 14.6879 97.1832 14.2196 97.1934 13.7486C97.1934 10.2651 101.046 7.80457 106.692 7.80457C112.594 7.80457 115.71 10.3053 115.71 15.8785V24.6922C115.71 25.7991 116.366 26.5353 117.391 26.5353C118.019 26.5353 118.47 26.4129 118.803 26.1681ZM107.942 25.5525V18.9527L107.41 19.1171C105.647 19.6505 104.458 20.7977 104.458 23.0938C104.458 25.0611 105.236 26.2485 106.508 26.2485C107.158 26.2485 107.691 26.0439 107.936 25.5525H107.942Z" fill="#F9F9F9"/>
<path d="M129.905 29.9386H118.88C120.027 28.8316 120.765 27.1986 120.765 23.832V17.1884C120.765 14.9325 120.478 13.7853 119.121 12.5158L118.178 11.6536L128.342 7.80115V10.9978C129.531 9.0305 132.032 7.80115 134.53 7.80115C138.465 7.80115 140.639 9.93287 140.639 13.7451V25.2258C140.639 27.5621 141.253 28.9979 142.237 29.9404H131.504C132.569 28.9157 132.855 27.5219 132.855 26.4149V14.6914C132.855 12.9688 132.282 12.1084 130.683 12.1084C130.292 12.0979 129.902 12.165 129.536 12.3057C129.17 12.4465 128.835 12.6582 128.552 12.9286V26.4131C128.552 27.5201 128.839 28.8791 129.905 29.9386Z" fill="#F9F9F9"/>
<path d="M144.25 28.7492V21.7403C147.2 25.5927 150.278 27.7244 153.144 27.7244C154.536 27.7244 155.192 26.9938 155.192 25.9617C155.192 24.9789 154.66 24.4054 153.718 24.0364L148.968 22.2736C145.315 20.9201 143.671 18.666 143.671 15.3049C143.671 10.9611 147.237 7.80457 152.32 7.80457C155.06 7.80457 158.1 8.58455 159.616 9.68969V15.6739C157.731 12.3548 154.657 10.5099 151.665 10.5099C150.148 10.5099 149.368 11.0012 149.368 11.9438C149.368 12.8864 149.942 13.2554 151.213 13.7887L156.832 16.0922C159.66 17.2393 160.931 19.6578 160.931 22.5677C160.931 27.3628 157.448 30.5594 152.2 30.5594C149.449 30.5487 146.734 29.9305 144.25 28.7492Z" fill="#F9F9F9"/>
<path d="M161.75 10.4698L164.124 6.81645C167.16 2.23151 169.584 0.0175781 173.678 0.0175781C176.875 0.0175781 178.924 1.41133 178.924 3.50104C178.924 5.3058 177.448 6.61735 174.334 6.61735C174.334 4.07462 172.898 3.13205 171.464 3.13205C170.03 3.13205 168.923 4.15682 168.923 5.83736C168.923 6.98451 169.537 8.13348 171.422 8.42027H175.978L174.334 10.4698H171.546V22.6427C171.546 24.937 171.912 26.9866 174.286 29.0781L175.271 29.9385H161.134C162.778 28.2945 163.757 26.2851 163.757 23.3387V10.4698H161.75Z" fill="#F9F9F9"/>
<path d="M193.879 22.9696C192.568 28.667 189.411 30.5521 184.821 30.5521C179.574 30.5521 174.657 26.7417 174.657 19.5683C174.657 12.6818 179.001 7.80457 184.704 7.80457C188.434 7.80457 193.68 9.7317 193.68 17.8513H181.301C182.161 22.1951 184.989 24.4492 188.923 24.4492C190.933 24.4456 192.326 24.0766 193.879 22.9696ZM181.054 15.0181V15.5442H186.465C186.465 11.4451 185.562 10.1756 183.842 10.1756C182.079 10.1829 181.054 11.9438 181.054 15.0181Z" fill="#F9F9F9"/>
<path d="M207.614 29.9384H194.579C196.177 28.0532 196.875 26.8239 196.875 23.8318V17.1882C196.875 14.8519 196.546 13.7449 194.99 12.3091L194.087 11.4908L203.926 7.80457V12.9284C204.868 9.97648 206.344 7.80457 208.763 7.80457C210.73 7.80457 212 9.19832 212 11.2478C212 13.4198 210.648 14.9359 208.763 14.9359C208.352 13.9933 207.369 13.544 206.467 13.544C205.736 13.544 205.033 13.7486 204.664 14.1175V23.5815C204.657 26.7417 205.205 27.6002 207.614 29.9384Z" fill="#F9F9F9"/>
</svg>
